<svg width="44" height="44" viewBox="0 0 44 44" fill="none" xmlns="http://www.w3.org/2000/svg">
<path d="M21.9996 23.875H22C23.5884 23.875 25.0409 24.0249 26.3601 24.3212C27.6765 24.6169 28.79 25.0566 29.7098 25.6322C30.6359 26.2118 31.3264 26.8734 31.8002 27.6108C32.2682 28.3391 32.5011 29.1383 32.5 30.0202V30.0208V32.5H11.5V30.0208C11.5 29.1403 11.7393 28.3422 12.2202 27.6143C12.7093 26.8739 13.4088 26.2113 14.3357 25.6324C15.2556 25.0579 16.3699 24.6181 17.6879 24.3211C19.0087 24.0235 20.4453 23.8738 21.9996 23.875ZM7.33392 23.3333H7.33333C6.45854 23.3333 5.72255 23.0279 5.09822 22.4036C4.47396 21.7794 4.16782 21.0427 4.16667 20.1664C4.16672 19.2571 4.47539 18.5168 5.09425 17.9116C5.71929 17.3004 6.45661 17 7.33333 17C8.24631 17 8.9879 17.3033 9.59228 17.9077C10.1967 18.5121 10.5 19.2537 10.5 20.1667C10.5 21.0448 10.1994 21.7827 9.58835 22.4076C8.98327 23.0263 8.24313 23.3344 7.33392 23.3333ZM36.6673 23.3333H36.6667C35.7919 23.3333 35.0559 23.0279 34.4316 22.4036C33.8072 21.7793 33.5011 21.0425 33.5 20.1661C33.5001 19.2569 33.8088 18.5167 34.4276 17.9116C35.0526 17.3004 35.7899 17 36.6667 17C37.5796 17 38.3212 17.3033 38.9256 17.9077C39.53 18.5121 39.8333 19.2537 39.8333 20.1667C39.8333 21.0448 39.5328 21.7827 38.9217 22.4076C38.3166 23.0263 37.5765 23.3344 36.6673 23.3333ZM18.4551 12.9384L18.1042 12.5822L18.4551 12.9384C19.4292 11.9787 20.6011 11.5012 22.0002 11.5C23.4324 11.5 24.6097 11.9793 25.5661 12.9357C26.5225 13.8921 27.0011 15.0687 27 16.4996V16.5C27 17.8991 26.5231 19.0709 25.5635 20.0449C24.6079 21.0149 23.4315 21.5 22 21.5C20.6033 21.5 19.4323 21.0169 18.4577 20.0423C17.4831 19.0677 17 17.8967 17 16.5C17 15.0699 17.485 13.894 18.4551 12.9384ZM0.5 32.5V30.1125C0.5 29.0096 1.04723 28.0857 2.27817 27.3303C3.51875 26.5691 5.19079 26.1667 7.33333 26.1667C7.72392 26.1667 8.09863 26.1745 8.45752 26.19C8.54224 26.1937 8.62595 26.1986 8.70864 26.2047C8.45224 26.6787 8.24659 27.169 8.0925 27.6753C7.86368 28.4271 7.75 29.2096 7.75 30.0208V32.5H0.5ZM36.25 32.5V30.0208C36.25 29.1846 36.1457 28.39 35.9343 27.6394C35.7934 27.1395 35.605 26.661 35.3692 26.2042C35.4494 26.1982 35.5301 26.1934 35.6113 26.1901C35.9564 26.1757 36.3085 26.1679 36.6675 26.1667C38.8109 26.1668 40.4841 26.5623 41.7252 27.3104C42.9495 28.0483 43.5 28.9769 43.5 30.1125V32.5H36.25Z" fill="#E3D4CA" stroke="#D9D9D9"/>
</svg>
