<svg width="157" height="31" viewBox="0 0 157 31" fill="none" xmlns="http://www.w3.org/2000/svg">
<path d="M0.0539063 28.11C0.0539063 26.22 2.27991 25.086 2.27991 19.584V11.268C2.27991 5.766 0.0539063 4.632 0.0539063 2.784C0.0539063 2.028 0.473906 0.852 2.27991 0.852H21.3899C22.6499 0.852 23.1539 1.44 23.3219 2.238L24.7079 9.504C24.9179 10.68 24.2039 11.268 23.4059 11.268C22.5239 11.268 22.1879 10.638 21.7679 9.882C19.7939 6.522 18.0719 3.834 13.3679 3.834H11.3099C10.2599 3.834 9.29391 4.086 9.29391 6.522V11.268C9.29391 13.704 10.2599 13.956 11.2679 13.956C14.4599 13.956 15.5939 11.688 17.4419 11.688C18.1979 11.688 19.3739 12.15 19.3739 13.956V16.938C19.3739 18.744 18.1979 19.206 17.4419 19.206C15.5939 19.206 14.4599 16.938 11.2679 16.938C10.2599 16.938 9.29391 17.19 9.29391 19.584V24.372C9.29391 26.766 10.2599 27.018 11.3099 27.018H13.3679C18.0719 27.018 19.7939 24.372 21.7679 20.97C22.1879 20.214 22.5239 19.584 23.4059 19.584C24.2039 19.584 24.9179 20.172 24.7079 21.348L23.3219 28.656C23.1539 29.454 22.6499 30 21.3899 30H2.27991C0.473906 30 0.0539063 28.866 0.0539063 28.11ZM26.9572 11.1C26.9572 9.378 29.3932 8.538 31.4932 8.538C34.1812 8.538 35.6512 9.714 36.1552 12.234C37.8352 10.008 40.3132 8.538 43.0012 8.538C45.4372 8.538 47.3272 9.63 48.1252 12.57C49.8892 10.134 52.4512 8.538 55.2652 8.538C58.5412 8.538 60.8512 10.596 60.8512 16.56V19.626C60.8512 24.834 63.6232 26.01 63.6232 28.11C63.6232 29.874 61.1452 30.672 59.0452 30.672C55.5592 30.672 54.1732 28.698 54.1732 24.456V18.24C54.1732 14.502 54.1312 12.066 52.9552 12.066C50.7712 12.066 48.5872 15.846 48.5872 19.626C48.5872 25.128 50.8552 26.22 50.8552 28.11C50.8552 28.866 50.3932 30.042 48.5872 30.042H41.9512C40.1452 30.042 39.6832 28.866 39.6832 28.11C39.6832 26.22 41.9512 25.128 41.9512 19.626C41.9512 14.502 41.9092 12.066 40.6912 12.066C38.5072 12.066 36.3652 15.846 36.3652 19.626C36.3652 25.128 38.5912 26.22 38.5912 28.11C38.5912 28.866 38.1292 30.042 36.3652 30.042H29.6872C27.8812 30.042 27.4192 28.866 27.4192 28.11C27.4192 26.22 29.6872 25.128 29.6872 19.626C29.6872 14.418 26.9572 13.2 26.9572 11.1ZM75.7366 30.672C69.0586 30.672 64.8586 26.388 64.8586 19.626C64.8586 12.822 69.0586 8.538 75.7366 8.538C82.4566 8.538 86.6566 12.822 86.6566 19.626C86.6566 26.388 82.4566 30.672 75.7366 30.672ZM71.5366 17.484C71.5366 20.046 72.5026 27.942 76.6186 27.942C78.7186 27.942 79.9786 25.674 79.9786 21.978C79.9786 19.122 79.0546 11.268 74.8966 11.268C72.7546 11.268 71.5366 13.536 71.5366 17.484ZM88.8117 28.11C88.8117 26.22 91.0377 25.086 91.0377 19.584V11.268C91.0377 5.766 88.8117 4.632 88.8117 2.784C88.8117 2.028 89.2317 0.852 91.0377 0.852H102.504C109.266 0.852 113.466 3.918 113.466 8.916C113.466 11.52 112.248 13.662 110.106 15.006C113.634 16.35 115.65 18.786 115.65 21.978C115.65 26.934 110.82 30 103.176 30H91.0377C89.2317 30 88.8117 28.866 88.8117 28.11ZM98.0517 11.268C98.0517 13.704 99.0177 13.956 100.068 13.956H102.504C104.688 13.956 106.116 11.982 106.116 8.916C106.116 5.808 104.688 3.834 102.504 3.834H100.068C99.0177 3.834 98.0517 4.086 98.0517 6.522V11.268ZM98.0517 24.372C98.0517 26.766 99.0177 27.018 100.068 27.018H103.176C106.326 27.018 108.342 25.044 108.342 21.978C108.342 18.912 106.326 16.938 103.176 16.938H100.068C99.0177 16.938 98.0517 17.19 98.0517 19.584V24.372ZM121.523 8.538C125.009 8.538 126.395 10.512 126.395 14.754V19.626C126.395 25.128 128.621 26.22 128.621 28.11C128.621 28.866 128.159 30.042 126.395 30.042H119.717C117.911 30.042 117.448 28.866 117.448 28.11C117.448 26.22 119.717 25.128 119.717 19.626C119.717 14.418 116.987 13.2 116.987 11.1C116.987 9.378 119.423 8.538 121.523 8.538ZM121.019 0.179998C123.413 0.179998 125.723 1.944 125.723 4.212C125.723 5.934 124.211 7.236 121.943 7.236C119.507 7.236 117.239 5.514 117.239 3.246C117.239 1.524 118.709 0.179998 121.019 0.179998ZM134.853 8.538C137.499 8.538 138.927 9.672 139.473 12.108C141.237 9.924 143.925 8.538 147.201 8.538C151.317 8.538 153.627 10.596 153.627 16.56V19.626C153.627 24.834 156.399 26.01 156.399 28.11C156.399 29.874 153.921 30.672 151.821 30.672C148.335 30.672 146.949 28.698 146.949 24.456V18.24C146.949 14.502 146.907 12.066 144.891 12.066C141.867 12.066 139.725 15.678 139.725 19.626C139.725 25.128 141.951 26.22 141.951 28.11C141.951 28.866 141.489 30.042 139.725 30.042H133.047C131.241 30.042 130.779 28.866 130.779 28.11C130.779 26.22 133.047 25.128 133.047 19.626C133.047 14.418 130.317 13.2 130.317 11.1C130.317 9.378 132.753 8.538 134.853 8.538Z" fill="url(#paint0_linear_29_792)"/>
<defs>
<linearGradient id="paint0_linear_29_792" x1="-1" y1="22.5" x2="157" y2="22.5" gradientUnits="userSpaceOnUse">
<stop stop-color="#F6F0E6"/>
<stop offset="1" stop-color="#E5D6CC"/>
</linearGradient>
</defs>
</svg>
