<svg width="43" height="43" viewBox="0 0 43 43" fill="none" xmlns="http://www.w3.org/2000/svg">
<path d="M41.9612 10.6085L32.3619 1.0071C32.0427 0.687814 31.6637 0.434539 31.2466 0.261739C30.8295 0.0889396 30.3825 0 29.931 0C29.4795 0 29.0324 0.0889396 28.6153 0.261739C28.1982 0.434539 27.8192 0.687814 27.5 1.0071L1.00763 27.5016C0.687044 27.8197 0.43287 28.1983 0.25989 28.6154C0.0869104 29.0326 -0.00142536 29.4799 1.73915e-05 29.9315V39.5329C1.73915e-05 40.4446 0.362181 41.3189 1.00684 41.9636C1.65149 42.6082 2.52584 42.9704 3.43752 42.9704H13.0389C13.4905 42.9718 13.9378 42.8835 14.355 42.7105C14.7721 42.5375 15.1507 42.2834 15.4688 41.9628L41.9612 15.4704C42.2804 15.1512 42.5337 14.7722 42.7065 14.3551C42.8793 13.938 42.9683 13.4909 42.9683 13.0394C42.9683 12.5879 42.8793 12.1409 42.7065 11.7238C42.5337 11.3067 42.2804 10.9277 41.9612 10.6085ZM4.14865 29.2204L22.3438 11.0253L25.9295 14.611L7.73439 32.804L4.14865 29.2204ZM3.43752 33.369L9.60139 39.5329H3.43752V33.369ZM13.75 38.8218L10.1643 35.236L28.3594 17.0409L31.9451 20.6266L13.75 38.8218ZM34.375 18.1967L24.7737 8.59538L29.9299 3.43913L39.5313 13.0383L34.375 18.1967Z" fill="black"/>
</svg>
