<svg width="51" height="51" viewBox="0 0 51 51" fill="none" xmlns="http://www.w3.org/2000/svg">
<path d="M25.5 33.0438L27.9438 35.4875C28.1563 35.7 28.4042 35.8063 28.6875 35.8063C28.9708 35.8063 29.2188 35.7 29.4313 35.4875L31.875 33.0438L32.8313 34C33.15 34.3188 33.5219 34.4781 33.9469 34.4781C34.3719 34.4781 34.7438 34.3188 35.0625 34C35.3813 33.6812 35.5406 33.3094 35.5406 32.8844C35.5406 32.4594 35.3813 32.0875 35.0625 31.7687L32.6188 29.325C32.4063 29.1125 32.1583 29.0062 31.875 29.0062C31.5917 29.0062 31.3438 29.1125 31.1313 29.325L28.6875 31.7687L26.2438 29.325C26.0313 29.1125 25.7833 29.0062 25.5 29.0062C25.2167 29.0062 24.9688 29.1125 24.7563 29.325L22.3125 31.7687L19.8688 29.325C19.6563 29.1125 19.4083 29.0062 19.125 29.0062C18.8417 29.0062 18.5938 29.1125 18.3813 29.325L15.9375 31.7687C15.6188 32.0875 15.4594 32.4594 15.4594 32.8844C15.4594 33.3094 15.6188 33.6812 15.9375 34C16.2563 34.3188 16.6281 34.4781 17.0531 34.4781C17.4781 34.4781 17.85 34.3188 18.1688 34L19.125 33.0438L21.5688 35.4875C21.7813 35.7 22.0292 35.8063 22.3125 35.8063C22.5958 35.8063 22.8438 35.7 23.0563 35.4875L25.5 33.0438ZM18.0094 21.25L15.2469 23.2687C14.8927 23.5521 14.6717 23.9062 14.5839 24.3312C14.496 24.7563 14.5931 25.1458 14.875 25.5C15.1569 25.8542 15.5111 26.0759 15.9375 26.1651C16.3639 26.2544 16.7535 26.1566 17.1063 25.8719L22.2594 22.1C22.5427 21.8875 22.6844 21.6042 22.6844 21.25C22.6844 20.8958 22.5427 20.6125 22.2594 20.4L17.1063 16.6281C16.7521 16.3448 16.3625 16.247 15.9375 16.3349C15.5125 16.4227 15.1583 16.6444 14.875 17C14.5917 17.3556 14.4854 17.7452 14.5563 18.1688C14.6271 18.5923 14.8573 18.9465 15.2469 19.2313L18.0094 21.25ZM32.9906 21.25L35.7531 19.2313C36.1073 18.9479 36.329 18.5938 36.4183 18.1688C36.5075 17.7438 36.4098 17.3542 36.125 17C35.8403 16.6458 35.4861 16.4248 35.0625 16.337C34.6389 16.2492 34.2493 16.3462 33.8938 16.6281L28.7406 20.4C28.4573 20.6125 28.3156 20.8958 28.3156 21.25C28.3156 21.6042 28.4573 21.8875 28.7406 22.1L33.8938 25.8719C34.2479 26.1552 34.6375 26.253 35.0625 26.1651C35.4875 26.0773 35.8417 25.8556 36.125 25.5C36.4083 25.1444 36.5146 24.7548 36.4438 24.3312C36.3729 23.9077 36.1427 23.5535 35.7531 23.2687L32.9906 21.25ZM25.5 46.75C22.5604 46.75 19.7979 46.1918 17.2125 45.0755C14.6271 43.9592 12.3781 42.4455 10.4656 40.5344C8.55313 38.6233 7.03942 36.3743 5.9245 33.7875C4.80959 31.2007 4.25142 28.4382 4.25 25.5C4.24859 22.5618 4.80675 19.7993 5.9245 17.2125C7.04225 14.6257 8.55596 12.3767 10.4656 10.4656C12.3753 8.55454 14.6243 7.04083 17.2125 5.9245C19.8008 4.80817 22.5633 4.25 25.5 4.25C28.4368 4.25 31.1993 4.80817 33.7875 5.9245C36.3758 7.04083 38.6247 8.55454 40.5344 10.4656C42.444 12.3767 43.9585 14.6257 45.0776 17.2125C46.1968 19.7993 46.7543 22.5618 46.75 25.5C46.7458 28.4382 46.1876 31.2007 45.0755 33.7875C43.9634 36.3743 42.4497 38.6233 40.5344 40.5344C38.619 42.4455 36.3701 43.9599 33.7875 45.0776C31.2049 46.1954 28.4424 46.7528 25.5 46.75ZM25.5 42.5C30.2458 42.5 34.2656 40.8531 37.5594 37.5594C40.8531 34.2656 42.5 30.2458 42.5 25.5C42.5 20.7542 40.8531 16.7344 37.5594 13.4406C34.2656 10.1469 30.2458 8.5 25.5 8.5C20.7542 8.5 16.7344 10.1469 13.4406 13.4406C10.1469 16.7344 8.5 20.7542 8.5 25.5C8.5 30.2458 10.1469 34.2656 13.4406 37.5594C16.7344 40.8531 20.7542 42.5 25.5 42.5Z" fill="black"/>
</svg>
